<!-- Placeholder for vk.svg -->
<!-- Add your VK icon SVG here -->
<svg xmlns="http://www.w3.org/2000/svg" width="24" height="24" viewBox="0 0 24 24" fill="currentColor">
  <path d="M15.073 2H8.937C5.001 2 2 4.988 2 8.927v6.136C2 18.999 4.999 22 8.927 22h6.136C18.999 22 22 19.001 22 15.073V8.927C22 4.999 19.001 2 15.073 2zM17.9 13.292c.358.366.358.973.358 1.458v.242c0 .242-.121.484-.484.605-.97.242-2.908.484-4.118.121-.363-.121-.605-.484-.847-.847-.605-.97-1.21-1.817-1.817-1.817-.242 0-.484.242-.484.726v1.574c0 .484-.121.726-.847.726H8.335c-2.18 0-3.876-1.331-5.086-4.602-.726-2.059-.968-3.633-.968-3.995 0-.242.121-.484.484-.484h2.664c.363 0 .605.242.726.605.726 2.059 1.937 3.876 2.421 4.36.242.242.363.363.484.363.121 0 .242-.121.242-.484V6.068c0-.363-.121-.605-.363-.726-.242-.242-.605-.363-1.21-.484-.363-.121-.484-.363-.484-.605 0-.242.242-.484.605-.484h3.391c.363 0 .484.121.605.363.121.363.121.726.121 1.089v2.908c0 .242.121.363.242.363.242 0 .484-.242.726-.605.847-1.331 1.574-2.908 1.695-3.513.121-.242.242-.363.605-.363h2.664c.363 0 .484.121.484.363 0 .363-.242 1.452-1.089 2.908-.847 1.331-1.695 2.059-1.695 2.421 0 .121.121.363.484.726.726.847 2.059 2.059 3.029 2.908z"/>
</svg>
